<?xml version="1.0" encoding="UTF-8"?>
<!DOCTYPE svg PUBLIC "-//W3C//DTD SVG 1.1//EN" "http://www.w3.org/Graphics/SVG/1.1/DTD/svg11.dtd">
<!-- Creator: CorelDRAW 2017 -->
<svg xmlns="http://www.w3.org/2000/svg" xml:space="preserve" width="600mm" height="600mm" version="1.1" style="shape-rendering:geometricPrecision; text-rendering:geometricPrecision; image-rendering:optimizeQuality; fill-rule:evenodd; clip-rule:evenodd"
viewBox="0 0 60000 60000"
 xmlns:xlink="http://www.w3.org/1999/xlink">
 <defs>
  <style type="text/css">
   <![CDATA[
    .fil0 {fill:black;fill-rule:nonzero}
   ]]>
  </style>
 </defs>
 <g id="Layer_x0020_1">
  <metadata id="CorelCorpID_0Corel-Layer"/>
  <path class="fil0" d="M42426.55 26625.05l1685.17 -8770.48 3.13 -12.5c151.73,-676.64 448.41,-1238.79 900.36,-1648.11 341.29,-309.07 763.62,-525.52 1270.54,-632.46l-782.28 -4615.44 -0.99 -12.57c-2.69,-34.17 -6.91,-69.89 -12.6,-106.93 -44.13,-286.87 -172.99,-574.45 -381.67,-779.98 -195.81,-192.83 -470.08,-313.18 -819.94,-285.56 -33.28,2.62 -68.62,6.78 -105.97,12.53l-30.47 4.69 -28.91 0c-2339.8,0 -4737.33,200.31 -7134.83,400.6 -2416.19,201.86 -4832.4,403.73 -7200.46,403.73 -2370.22,0 -4679.95,-201.86 -6989.65,-403.73 -2291.86,-200.29 -4583.74,-400.6 -6920.9,-400.6l-28.92 0 -30.46 -4.69c-37.35,-5.75 -72.69,-9.91 -105.97,-12.53 -349.85,-27.62 -624.12,92.73 -819.94,285.57 -208.7,205.52 -337.54,493.11 -381.67,779.97 -5.69,37.04 -9.91,72.76 -12.6,106.93l-1 12.57 -782.27 4615.44c506.92,106.94 929.26,323.39 1270.54,632.46 451.95,409.32 748.63,971.47 900.36,1648.11l3.13 12.5 1685.17 8770.48c771.92,-475.05 1679.27,-751.51 2732.88,-743.78l0 -1.56 19387.34 0 0 1.56c1053.61,-7.73 1960.95,268.73 2732.88,743.78zm-36402.6 16903.74c8.57,0.84 17.17,1.94 25.78,3.34 77.44,9.24 161.3,12.07 251.87,7.52l18.75 -1.56 4626.13 0 -163.8 -4682.94c-128.91,-51.17 -254.66,-123.45 -374.33,-221.69 -306.31,-251.44 -555.31,-666.59 -680.79,-1326.44l-4.69 -29.69c-334.12,-2950.85 -647.18,-5516.74 -1089.6,-8062.23 -439.87,-2530.88 -1007.54,-5039.62 -1851.24,-7884.92 -165.16,-378.32 -298.24,-760.38 -391.99,-1133.78 -177.31,-706.26 -213.6,-1386.59 -61.92,-1963.15 34.92,-132.77 79.38,-259.73 133.78,-380.1 -228.01,-4.43 -448.46,6.61 -633.88,62.36l-2991.94 899.54c-188.03,63.67 -291.07,170.4 -336.54,307.08 -62.36,187.42 -49.36,447.08 2.39,745.75l3.13 20.31 2790.71 23023.4c47.73,183.45 154.6,356.17 326.2,471.42 106.09,71.25 239.32,122.96 401.98,145.78zm288.65 808.9l-1143.13 5904.81 1454.24 0c232.05,-833.1 573.83,-1766.88 1138.3,-2532.05 665.37,-901.9 1623.17,-1564.82 3038.91,-1572.72l19199.08 42.32 19199.08 -42.3c1415.74,7.88 2373.56,670.8 3038.91,1572.7 564.49,765.17 906.27,1698.95 1138.31,2532.05l1454.23 0 -1143.13 -5904.81 -7.75 -0.3 0 0.7 -47359.3 0 0 -0.7 -7.75 0.3zm47637.67 -805.56c8.61,-1.41 17.21,-2.51 25.78,-3.34 162.66,-22.82 295.89,-74.53 401.98,-145.78 171.6,-115.25 278.47,-287.96 326.2,-471.42l2790.71 -23023.4 3.13 -20.31c51.75,-298.67 64.76,-558.33 2.39,-745.75 -45.47,-136.68 -148.51,-243.41 -336.54,-307.08l-2991.94 -899.54c-185.42,-55.75 -405.87,-66.79 -633.88,-62.36 54.41,120.37 98.86,247.33 133.78,380.1 151.68,576.56 115.39,1256.89 -61.92,1963.15 -93.75,373.4 -226.83,755.46 -391.99,1133.78 -843.68,2845.29 -1411.37,5354.04 -1851.24,7884.92 -442.42,2545.49 -755.48,5111.38 -1089.6,8062.23l-4.69 29.69c-125.48,659.85 -374.46,1074.99 -680.79,1326.44 -119.67,98.24 -245.42,170.52 -374.33,221.69l-163.8 4682.94 4626.13 0 18.75 1.56c90.57,4.55 174.43,1.72 251.87,-7.52zm528 689.12l1223.64 6320.61c8.34,32.16 12.77,65.88 12.77,100.64 0,220.91 -179.09,400 -400,400l-2243.67 0 0 -1.62c-177.83,0.12 -339.98,-119.73 -385.94,-299.94 -212.28,-825.57 -531.31,-1800.16 -1090.84,-2558.61 -527.85,-715.51 -1284.52,-1241.44 -2398.04,-1247.72l-19196.19 42.32 -19196.19 -42.32c-1113.51,6.28 -1870.18,532.21 -2398.04,1247.72 -551.68,747.82 -869.55,1705.71 -1081.83,2523.75 -30.46,190.69 -195.68,336.42 -394.95,336.42l-2243.67 0 0 -0.66c-24.73,-0.03 -49.81,-2.33 -75,-7.15 -216.6,-41.42 -358.61,-250.59 -317.19,-467.19l1228.6 -6346.25c-125.7,-46.9 -240.16,-106.33 -343.52,-175.74 -359.8,-241.65 -576.88,-597.25 -665.09,-967.73l-4.75 -19.92 -2796.22 -23068.94c-69.63,-408.84 -78.16,-788.35 31.13,-1116.79 126.62,-380.53 389.62,-667.67 855.29,-819.58l9.38 -3.12 2991.95 -899.54c416.53,-125.24 859.11,-100.68 1280.61,-77.31 65.92,3.65 131.31,7.28 191.68,10.2 127.58,-96.24 270.88,-180.22 430.75,-250.51 113.68,-49.97 235.59,-92.59 365.96,-127.23l2095.91 -1029.57c526.97,-258.85 1802.5,-218.62 2696.64,-190.43 88.5,2.79 172.63,5.44 254.72,7.58l785.53 -4634.58c4.3,-50.99 10.26,-101.15 17.8,-150.24 68.4,-444.65 275,-897.2 612.91,-1229.97 350.79,-345.47 834.37,-561.66 1441.82,-513.69 43.67,3.44 87.16,8.15 130.38,14.14 2360.59,1.55 4661.38,202.61 6962.13,403.68 2291.85,200.3 4583.72,400.61 6920.89,400.61 2339.81,0 4737.33,-200.31 7134.84,-400.61 2406.82,-201.07 4813.67,-402.13 7172.92,-403.68 43.22,-5.99 86.71,-10.7 130.38,-14.14 607.46,-47.97 1091.03,168.23 1441.82,513.68 337.9,332.79 544.51,785.33 612.91,1229.98 7.54,49.09 13.5,99.25 17.8,150.24l785.53 4634.58c82.09,-2.14 166.22,-4.79 254.72,-7.58 894.14,-28.19 2169.67,-68.42 2696.64,190.43l2095.91 1029.57c130.37,34.64 252.28,77.26 365.96,127.23 159.87,70.29 303.16,154.27 430.75,250.51 60.36,-2.92 125.76,-6.55 191.68,-10.2 421.5,-23.37 864.08,-47.93 1280.61,77.31l2991.95 899.54 9.38 3.12c465.68,151.91 728.67,439.04 855.29,819.58 109.31,328.45 100.76,707.96 31.13,1116.79l-2796.23 23068.94 -4.74 19.92c-88.21,370.48 -305.29,726.08 -665.09,967.73 -103.36,69.42 -217.82,128.84 -343.52,175.74zm-39563.25 -9391.04c136.64,1050.38 443.53,1822.23 941.55,2343.41 487.29,509.94 1179.45,793.17 2096.54,876.89l24093.78 0c917.09,-83.72 1609.25,-366.95 2096.54,-876.89 498.03,-521.19 804.92,-1293.03 941.55,-2343.41 25.68,-272.48 54.86,-541.13 87.48,-806.65 -82.93,-1813.71 -638.52,-3925.18 -1775.15,-5425.93 -869.37,-1147.88 -2086.87,-1931.76 -3702.08,-1919.48l-1.56 1.56 -19387.34 0 -1.56 -1.56c-1615.21,-12.28 -2832.71,771.6 -3702.08,1919.48 -1136.63,1500.76 -1692.22,3612.22 -1775.15,5425.93 32.62,265.52 61.8,534.17 87.48,806.65zm30044.3 2615.59c-74.88,97.62 -154.08,190.24 -237.77,277.82 -633.38,662.83 -1498.65,1026.01 -2622.84,1125.33l-17.66 1.56 -24162.11 0 -17.65 -1.56c-1124.19,-99.32 -1989.46,-462.5 -2622.84,-1125.33 -83.69,-87.58 -162.89,-180.19 -237.77,-277.82 -39.6,432.65 -211.33,799.42 -476.24,1063.22 -292.96,291.75 -692.5,452.76 -1148.62,435.67l-7.69 -0.25 -1824.23 9.8 160.33 4583.85 36511.54 0 160.33 -4583.85 -1824.23 -9.8 -7.69 0.25c-456.11,17.09 -855.66,-143.92 -1148.62,-435.67 -264.9,-263.8 -436.64,-630.57 -476.24,-1063.22zm-35798.11 -19392.84c-135.37,25.89 -266.11,-62.87 -292,-198.24 -25.89,-135.37 62.87,-266.11 198.24,-292 956.62,-185.15 1584.2,-97.21 2014.76,188.21l2630.08 -1366.88c-146.45,-42.01 -304.86,-71.14 -475.5,-86.51 -123.57,-0.58 -347.53,-7.65 -600.34,-15.62 -812.98,-25.64 -1972.74,-62.2 -2321.64,109.17l-2178.69 1070.23 -36.16 9.08c-99.5,24.98 -191.12,56.19 -275.14,93.13 -390.94,171.89 -621.91,481.62 -724.82,872.84 -115.51,439.07 -81.22,983.7 65.04,1566.27 84.13,335.07 205.42,680.91 357.01,1025.66l8.61 19.58 8.57 28.86c859.1,2893.22 1435.67,5438.61 1881.54,8003.98 444.15,2555.42 758.78,5132.79 1094.37,8095.98 86.54,443.03 230.34,702.3 399.47,841.14 146.82,120.52 330.66,152.06 513.64,140.22l23.44 0 1985.69 -10.58 8.13 0.33c225.57,8.12 418.87,-67.42 556.43,-204.41 145.79,-145.18 236.96,-363.67 248.62,-631.94l0.18 -2.98c-21.3,-1340.06 -120.67,-2565.98 -290.32,-3746.62 -169.8,-1181.64 -410.06,-2313.37 -712.94,-3465.72 -56.09,-213.14 71.24,-431.41 284.38,-487.5 213.14,-56.09 431.41,71.24 487.5,284.38 141.97,540.16 270.52,1075.81 384.89,1613.82 313.68,-1221.68 825.68,-2419.67 1560.94,-3390.47 269.01,-355.19 567.27,-680.44 895.93,-966.33l-1757.22 -9145.47 0.27 -0.05c-116.9,-512.52 -332.61,-929.09 -653.76,-1219.94 -53.18,-48.16 -109.65,-93.12 -169.39,-134.78 -7.76,5.21 -15.88,10.06 -24.37,14.47l-2792.25 1451.17c390.98,521.93 540.19,1317.48 712.36,2235.54 78.91,420.75 163.08,869.53 279.69,1320.78 34.51,133.21 -45.5,269.2 -178.71,303.71 -133.21,34.51 -269.2,-45.5 -303.71,-178.71 -122.42,-473.73 -207.63,-928.04 -287.51,-1353.98 -302.1,-1610.92 -520.95,-2777.76 -2525.31,-2389.82zm36434.54 13453.88c114.37,-538.01 242.92,-1073.66 384.89,-1613.82 56.09,-213.14 274.36,-340.47 487.5,-284.38 213.14,56.09 340.47,274.36 284.38,487.5 -302.87,1152.36 -543.14,2284.08 -712.94,3465.72 -169.65,1180.64 -269.02,2406.56 -290.32,3746.62l0.12 2.98c11.72,268.27 102.89,486.76 248.68,631.94 137.56,136.99 330.86,212.53 556.43,204.46l8.13 -0.38 1985.69 10.58 23.44 0c182.98,11.84 366.81,-19.69 513.64,-140.22 169.13,-138.84 312.93,-398.11 399.47,-841.14 335.59,-2963.19 650.22,-5540.56 1094.37,-8095.98 445.87,-2565.37 1022.46,-5110.77 1881.54,-8003.98l8.56 -28.86 8.62 -19.58c151.59,-344.75 272.88,-690.59 357.01,-1025.66 146.26,-582.57 180.55,-1127.2 65.04,-1566.27 -102.91,-391.22 -333.88,-700.95 -724.82,-872.84 -84.02,-36.94 -175.65,-68.16 -275.14,-93.13l-36.17 -9.08 -2178.68 -1070.23c-348.91,-171.38 -1508.66,-134.81 -2321.64,-109.17 -252.81,7.97 -476.78,15.04 -600.34,15.62 -170.64,15.37 -329.05,44.5 -475.5,86.51l2630.08 1366.88c430.57,-285.42 1058.14,-373.36 2014.76,-188.21 135.37,25.89 224.13,156.63 198.24,292 -25.89,135.37 -156.63,224.13 -292,198.24 -2004.36,-387.94 -2223.21,778.9 -2525.31,2389.82 -79.88,425.94 -165.09,880.25 -287.51,1353.98 -34.51,133.21 -170.5,213.22 -303.71,178.71 -133.21,-34.51 -213.22,-170.5 -178.71,-303.71 116.61,-451.25 200.78,-900.03 279.69,-1320.78 172.17,-918.06 321.32,-1713.68 712.36,-2235.54l-2792.25 -1451.17c-8.49,-4.41 -16.61,-9.26 -24.37,-14.47 -59.74,41.66 -116.21,86.62 -169.39,134.78 -321.15,290.85 -536.86,707.42 -653.76,1219.94l0.27 0.05 -1757.22 9145.47c328.69,285.85 626.92,611.14 895.93,966.33 735.26,970.8 1247.26,2168.79 1560.94,3390.47z"/>
 </g>
</svg>
