<?xml version="1.0" encoding="utf-8"?>
<!-- Generator: Adobe Illustrator 25.2.3, SVG Export Plug-In . SVG Version: 6.00 Build 0)  -->
<svg version="1.1" xmlns="http://www.w3.org/2000/svg" xmlns:xlink="http://www.w3.org/1999/xlink" x="0px" y="0px"
	 viewBox="0 0 64 64" enable-background="new 0 0 64 64" xml:space="preserve">
<g id="Layer_1">
</g>
<g id="Layer_2">
</g>
<g id="Layer_3">
</g>
<g id="Layer_4">
</g>
<g id="Layer_5">
</g>
<g id="Layer_6">
</g>
<g id="Layer_7">
</g>
<g id="Layer_8">
</g>
<g id="Layer_9">
</g>
<g id="Layer_10">
</g>
<g id="Layer_11">
</g>
<g id="Layer_12">
</g>
<g id="Layer_13">
</g>
<g id="Layer_14">
</g>
<g id="Layer_15">
</g>
<g id="Layer_16">
</g>
<g id="Layer_17">
</g>
<g id="Layer_18">
</g>
<g id="Layer_19">
</g>
<g id="Layer_20">
</g>
<g id="Layer_21">
</g>
<g id="Layer_22">
</g>
<g id="Layer_23">
</g>
<g id="Layer_24">
</g>
<g id="Layer_25">
</g>
<g id="Layer_26">
</g>
<g id="Layer_27">
</g>
<g id="Layer_28">
</g>
<g id="Layer_29">
</g>
<g id="Layer_30">
</g>
<g id="Layer_31">
	<path d="M49,56V22c0-3.5-1.4-6.7-3.8-9.2l-7.2-7.2C38,5.3,38,5.2,38,5c0-1.3-0.5-2.6-1.5-3.5C35.6,0.5,34.4,0,33,0
		c-1.3,0-2.6,0.5-3.5,1.5l-1.2,1.2c-8.5,1-15.2,3.9-19.9,8.7c0,0,0,0,0,0c-0.1,0.1-0.1,0.1-0.1,0.2c0,0-0.1,0.1-0.1,0.1
		c-0.8,1.6,1.8,5,4.5,8c0,0.3-0.1,0.5-0.1,0.8c0,1.3,0.5,2.6,1.5,3.5c0.9,0.9,2.2,1.5,3.5,1.5c0.3,0,0.6,0,0.8-0.1
		c1.3,1.1,2.5,2.1,3.6,2.9c1.7,1.2,2.9,1.8,3.7,1.8c0.4,0,0.8-0.1,1-0.4c4.4-4.4,7.2-10.5,8.4-18.1l4.7,4.7C41.9,18.3,43,21,43,24
		v32c-3.9,0-7,3.1-7,7c0,0.6,0.4,1,1,1h18c0.6,0,1-0.4,1-1C56,59.1,52.9,56,49,56z M14.6,16.4L14,16.9c-0.2,0.2-0.4,0.4-0.5,0.6
		c-1.6-1.9-2.7-3.4-3.2-4.3C11.2,13.7,12.7,14.7,14.6,16.4z M20.4,24.5c0.2-0.2,0.4-0.3,0.6-0.5l0.6-0.6c1.6,1.9,2.6,3.4,3.1,4.3
		C23.9,27.2,22.4,26.1,20.4,24.5z M41.2,14.8l-5.5-5.5l0.8-0.8c0.3-0.3,0.5-0.6,0.7-0.9l6.6,6.6C45.9,16.3,47,19,47,22v34h-2V24
		C45,20.5,43.6,17.2,41.2,14.8z"/>
</g>
</svg>
