<?xml version="1.0" encoding="iso-8859-1"?>
<!-- Generator: Adobe Illustrator 23.0.5, SVG Export Plug-In . SVG Version: 6.00 Build 0)  -->
<svg version="1.1" xmlns="http://www.w3.org/2000/svg" xmlns:xlink="http://www.w3.org/1999/xlink" x="0px" y="0px"
	 viewBox="0 0 512 512" style="enable-background:new 0 0 512 512;" xml:space="preserve">
<g id="_x33_1_Dinner_Table">
	<g>
		<path d="M486.687,429.945h-13.246V155.056c0-3.126-2.455-5.581-5.581-5.581c-3.051,0-5.581,2.455-5.581,5.581v148.458h-19.645
			v-70.396c0-29.171-23.664-52.909-52.835-52.909h-42.565c-2.828-45.989-39.663-82.824-85.652-85.652V76.473
			c0-3.051-2.456-5.581-5.581-5.581c-3.051,0-5.581,2.53-5.581,5.581v18.083c-45.914,2.828-82.75,39.663-85.577,85.652h-42.565
			c-29.171,0-52.835,23.738-52.835,52.909v70.396H49.795V155.056c0-3.126-2.53-5.581-5.581-5.581c-3.125,0-5.581,2.455-5.581,5.581
			v274.889h-13.32c-3.051,0-5.581,2.53-5.581,5.581c0,3.126,2.53,5.581,5.581,5.581h461.374c3.125,0,5.581-2.455,5.581-5.581
			C492.268,432.475,489.812,429.945,486.687,429.945z M256,105.496c42.417,0,77.317,33.04,80.145,74.713H175.929
			C178.757,138.535,213.658,105.496,256,105.496z M49.795,314.676h19.646v27.311H49.795V314.676z M101.812,429.945H49.795v-76.796
			h19.646v10.641c0,4.168,4.242,6.847,7.962,5.061l24.408-11.46V429.945z M127.559,429.945h-14.585v-77.838l7.293-3.424l7.293,3.424
			V429.945z M164.916,429.945h-26.194v-72.555l24.408,11.46c0.595,0.297,1.19,0.372,1.786,0.446V429.945z M335.996,429.945H176.078
			v-64.89l34.752-16.372l42.789,20.167c1.488,0.744,3.274,0.744,4.763,0l42.863-20.167l34.752,16.372V429.945z M373.353,429.945
			h-26.194v-60.649c0.595-0.074,1.19-0.149,1.786-0.446l24.408-11.46V429.945z M399.1,429.945h-14.585v-77.838l7.293-3.424
			l7.293,3.424V429.945z M462.279,429.945h-52.016v-72.555l24.408,11.46c3.721,1.786,7.962-0.893,7.962-5.061v-10.641h19.645
			V429.945z M462.279,341.987h-19.645v-27.311h19.645V341.987z"/>
	</g>
</g>
<g id="Layer_1">
</g>
</svg>
