<?xml version="1.0" encoding="utf-8"?>
<!-- Generator: Adobe Illustrator 22.0.1, SVG Export Plug-In . SVG Version: 6.00 Build 0)  -->
<svg version="1.1" id="Layer_1" xmlns="http://www.w3.org/2000/svg" xmlns:xlink="http://www.w3.org/1999/xlink" x="0px" y="0px"
	 viewBox="0 0 53 53" style="enable-background:new 0 0 53 53;" xml:space="preserve">
<g>
	<g>
		<path d="M8.0737305,44.986084h0.2797852c0.3077393,0,0.6044312,0.0388794,0.8951416,0.0966797
			c0.0574951,0.0114136,0.1150513,0.0213013,0.171814,0.0349121c0.0471191,0.0113525,0.0963745,0.0161743,0.1430054,0.0290527
			V24.6062012H6.8535156v20.5410156c0.0467529-0.0128784,0.0963745-0.0177002,0.1436768-0.0290527
			c0.0587158-0.0140381,0.1184082-0.024231,0.1780396-0.0359497C7.4666138,45.0249023,7.7644653,44.986084,8.0737305,44.986084z"/>
	</g>
	<g>
		<rect x="7.5112305" y="9.036377" width="14.9897461" height="4.0898438"/>
	</g>
	<g>
		<rect x="7.5112305" y="14.1286621" width="14.9897461" height="4.0898438"/>
	</g>
	<g>
		<path d="M9.8544922,46.3200684C9.390625,46.0974121,8.8881836,45.986084,8.3535156,45.986084H8.0737305
			c-0.5415039,0-1.0473633,0.1113281-1.503418,0.3305664c-0.3867188,0.1801758-0.7290039,0.4194336-1.0229492,0.7128906
			c-0.5527344,0.5605469-0.9023438,1.2670898-1.0087891,2.0268555h7.3496094
			C11.7197266,47.8703613,10.9584961,46.8283691,9.8544922,46.3200684z"/>
	</g>
	<g>
		<path d="M41.5195313,13.6291504c-0.145874,0.1471558-0.2991333,0.2861938-0.4584961,0.4173584
			c-0.0214844,0.0177002-0.045105,0.0323486-0.0668335,0.0497437c-0.1519165,0.1216431-0.3085938,0.2367554-0.4710693,0.3433838
			c-0.0641479,0.0421143-0.1312866,0.0787354-0.1968994,0.1184692c-0.1248779,0.0755005-0.2506104,0.1490479-0.3804932,0.2156982
			c-0.0773926,0.0396729-0.156311,0.0753784-0.2352905,0.1118774c-0.1243896,0.0574341-0.249939,0.1115112-0.3780518,0.1607666
			c-0.0834351,0.0320435-0.1670532,0.0622559-0.2518311,0.0908203c-0.1311646,0.0441284-0.2640381,0.0826416-0.3982544,0.118103
			c-0.083252,0.0219727-0.1658325,0.0448608-0.2501221,0.0634155c-0.147522,0.0325317-0.296875,0.0566406-0.4470825,0.0785522
			c-0.0732422,0.0106812-0.1455078,0.0250244-0.2193604,0.0330811c-0.2244263,0.0245972-0.4506836,0.0395508-0.678833,0.0395508
			c-0.2283325,0-0.4547119-0.0150146-0.6792603-0.0396118c-0.0733643-0.0080566-0.1451416-0.0222778-0.2180176-0.0328979
			c-0.1509399-0.0219116-0.3009033-0.0462646-0.4491577-0.0789795c-0.0834961-0.0184326-0.1652832-0.0410156-0.2478027-0.0628052
			c-0.135437-0.0357666-0.2694092-0.074707-0.4017944-0.1192627c-0.0836182-0.0281372-0.1661377-0.0579834-0.2483521-0.0895996
			c-0.1298218-0.0498657-0.257019-0.1046753-0.3829956-0.1629639c-0.0775146-0.0358887-0.1550293-0.0708618-0.230957-0.1098022
			c-0.131897-0.067688-0.2595215-0.1422729-0.3861694-0.2190552c-0.0640259-0.0387573-0.1295776-0.0745239-0.1921387-0.1156006
			c-0.1680298-0.1103516-0.3303223-0.2290039-0.4870605-0.3553467c-0.0165405-0.0133667-0.034729-0.0245972-0.0511475-0.0380859
			c-0.1591187-0.1309814-0.3120728-0.2698975-0.4577637-0.4168091l-1.6104736,4.5893555h12.0866699L41.5195313,13.6291504z"/>
	</g>
	<g>
		<path d="M32.8793945,12.3581543c0.972168,1.3222656,2.5454102,2.1118164,4.2075195,2.1118164
			s3.2353516-0.7895508,4.2075195-2.1118164c0.0185547-0.0249023,0.0390625-0.0483398,0.0615234-0.0688477
			c0.6538086-0.8969727,0.9990234-1.9589844,0.9990234-3.0771484c0-2.9052734-2.3632813-5.2685547-5.2680664-5.2685547
			s-5.2680664,2.3632813-5.2680664,5.2685547c0,1.1196289,0.3457031,2.1826172,1.0009766,3.0795898
			C32.8417969,12.3122559,32.8618164,12.3342285,32.8793945,12.3581543z M35.2104492,10.376709l1.3579102-1.3583984
			l0.0185547-1.9609375c0-0.2763672,0.2236328-0.5,0.5-0.5s0.5,0.2236328,0.5,0.5v1.9160156
			c0,0.2807617-0.1137695,0.5551758-0.3125,0.7529297l-1.3569336,1.3574219
			c-0.0976563,0.0976563-0.2255859,0.1464844-0.3535156,0.1464844s-0.2558594-0.0488281-0.3535156-0.1464844
			C35.0151367,10.8884277,35.0151367,10.5720215,35.2104492,10.376709z"/>
	</g>
	<g>
		<rect x="7.5112305" y="3.9436035" width="14.9897461" height="4.090332"/>
	</g>
	<g>
		<rect x="10.5634766" y="28.8879395" width="19.090332" height="10.8857422"/>
	</g>
	<g>
		<path d="M30.6538086,37.3879395h15.3598633v-5.6489258H30.6538086V37.3879395z M38.3334961,34.0158691
			c0.2763672,0,0.5478516,0.2714844,0.5478516,0.5478516s-0.2714844,0.5473633-0.5478516,0.5473633
			s-0.5473633-0.2709961-0.5473633-0.5473633S38.0571289,34.0158691,38.3334961,34.0158691z"/>
	</g>
	<g>
		<rect x="10.5634766" y="24.6037598" width="19.090332" height="3.2841797"/>
	</g>
	<g>
		<path d="M30.6538086,30.7390137h15.3598633v-6.1328125H30.6538086V30.7390137z M38.3334961,27.1237793
			c0.2763672,0,0.5478516,0.2709961,0.5478516,0.5473633s-0.2714844,0.5478516-0.5478516,0.5478516
			s-0.5473633-0.2714844-0.5473633-0.5478516S38.0571289,27.1237793,38.3334961,27.1237793z"/>
	</g>
	<g>
		<path d="M48.5,19.2185059h-4.6465454c-0.0056152,0.0001831-0.010376,0.0039063-0.0160522,0.0039063H30.3369141
			c-0.0056763,0-0.010437-0.0037231-0.0160522-0.0039063h-7.3198853H7.0112305H4.5c-0.2758789,0-0.5,0.2241211-0.5,0.5v3.3852539
			c0,0.2758789,0.2241211,0.5,0.5,0.5h44c0.2758789,0,0.5-0.2241211,0.5-0.5v-3.3852539
			C49,19.442627,48.7758789,19.2185059,48.5,19.2185059z"/>
	</g>
	<g>
		<path d="M30.6538086,49.0563965h15.3598633v-10.668457H30.6538086V49.0563965z M42.6210938,43.2536621
			c0.2763672,0,0.5473633,0.2709961,0.5473633,0.5473633s-0.2709961,0.5478516-0.5473633,0.5478516
			s-0.5478516-0.2714844-0.5478516-0.5478516S42.3447266,43.2536621,42.6210938,43.2536621z"/>
	</g>
</g>
</svg>
