<svg id="Glyph" xmlns="http://www.w3.org/2000/svg" viewBox="0 0 64 64"><defs><style>.cls-1{fill:#231f20;}</style></defs><title>1</title><path class="cls-1" d="M46.52,12.3H17.48a5.0147,5.0147,0,0,0-5,5V27.51h5.15V24.54a3.00883,3.00883,0,0,1,3-3h6.59a3.00882,3.00882,0,0,1,3,3v2.97H33.78V24.54a3.00882,3.00882,0,0,1,3-3h6.59a3.00883,3.00883,0,0,1,3,3v2.97h5.15V17.3A5.0147,5.0147,0,0,0,46.52,12.3Z"/><path class="cls-1" d="M52.87,29.51H11.13A7.14,7.14,0,0,0,4,36.64v4.77a3.00879,3.00879,0,0,0,3,3H57a3.00879,3.00879,0,0,0,3-3V36.64A7.14,7.14,0,0,0,52.87,29.51Z"/><path class="cls-1" d="M20.63,23.54a1.003,1.003,0,0,0-1,1v2.97h8.59V24.54a1.00291,1.00291,0,0,0-1-1Z"/><path class="cls-1" d="M36.78,23.54a1.00291,1.00291,0,0,0-1,1v2.97h8.59V24.54a1.003,1.003,0,0,0-1-1Z"/><path class="cls-1" d="M10.64,51.7a2.87232,2.87232,0,0,0,2.86-2.86V46.41H7.49v2.43a2.87447,2.87447,0,0,0,2.87,2.86Z"/><path class="cls-1" d="M53.64,51.7a2.87447,2.87447,0,0,0,2.87-2.86V46.41H50.5v2.43a2.87232,2.87232,0,0,0,2.86,2.86Z"/></svg>